<svg width="80" height="80" viewBox="0 0 80 80" fill="none" xmlns="http://www.w3.org/2000/svg">
<g clip-path="url(#clip0)">
<path d="M62.7833 0.999512H17.2167C12.6505 0.999512 8.2714 2.81341 5.04264 6.04216C1.81389 9.27091 0 13.65 0 18.2162L0 61.7828C0 66.349 1.81389 70.7281 5.04264 73.9569C8.2714 77.1856 12.6505 78.9995 17.2167 78.9995H62.7833C67.3495 78.9995 71.7286 77.1856 74.9574 73.9569C78.1861 70.7281 80 66.349 80 61.7828V18.2162C80 13.65 78.1861 9.27091 74.9574 6.04216C71.7286 2.81341 67.3495 0.999512 62.7833 0.999512V0.999512ZM42.43 55.9695H34.8067C34.2733 55.9695 33.8933 55.9495 33.68 55.5928C32.9633 54.1962 32.2467 52.8095 31.5333 51.4328C30.7957 50.0164 30.0356 48.6118 29.2533 47.2195C28.4406 45.7784 27.6439 44.3283 26.8633 42.8695H26.81C26.0875 44.3108 25.3452 45.742 24.5833 47.1628C23.8167 48.5928 23.0533 50.0162 22.3033 51.4295C21.554 52.844 20.7862 54.2486 20 55.6429C19.8533 55.9662 19.6033 55.9995 19.2433 55.9995H11.8933C11.75 55.9995 11.67 56.0562 11.6533 55.9129C11.634 55.7818 11.6624 55.6481 11.7333 55.5362L22.09 38.5195L12 21.4595C11.89 21.3162 11.8733 21.1995 11.9467 21.1028C11.9861 21.0566 12.036 21.0203 12.0922 20.9972C12.1485 20.974 12.2094 20.9645 12.27 20.9695H19.8367C20.0016 20.9627 20.1661 20.9899 20.32 21.0495C20.4477 21.1229 20.5572 21.2243 20.64 21.3462C21.2833 22.7795 22 24.2095 22.7867 25.6395C23.5733 27.0695 24.37 28.4828 25.1733 29.8795C25.9767 31.2762 26.72 32.6895 27.4 34.1195H27.4533C28.1633 32.6528 28.8867 31.2228 29.6267 29.8262C30.3667 28.4295 31.1167 27.0262 31.88 25.6128C32.65 24.1962 33.39 22.7895 34.1067 21.3995C34.1465 21.2655 34.2199 21.1438 34.32 21.0462C34.4531 20.9799 34.602 20.9522 34.75 20.9662H41.78C41.8591 20.9469 41.9426 20.9596 42.0124 21.0014C42.0823 21.0431 42.1329 21.1107 42.1533 21.1895C42.1674 21.2462 42.1651 21.3056 42.1468 21.3611C42.1285 21.4165 42.095 21.4656 42.05 21.5028L42.0533 21.5162L32.07 37.9928L42.75 55.4895C42.82 55.6128 42.8367 55.7562 42.8033 55.8928C42.77 56.0128 42.6467 55.9329 42.43 55.9695V55.9695ZM68.0333 54.5695C66.2887 55.2963 64.4718 55.836 62.6133 56.1795C60.9125 56.4954 59.1866 56.6571 57.4567 56.6629C54.9873 56.6991 52.5407 56.1868 50.2933 55.1628C48.1996 54.1933 46.4492 52.6114 45.2733 50.6262C43.9811 48.3099 43.3493 45.6834 43.4467 43.0328C43.4268 40.5697 44.0569 38.1448 45.2733 36.0028C46.5266 33.8208 48.3692 32.036 50.59 30.8528C53.3964 29.3863 56.5544 28.7263 59.7133 28.9462C60 28.9628 60.34 28.9895 60.7333 29.0262V18.4528C60.7333 18.2028 60.84 18.0762 61.0567 18.0762H67.8167C67.8918 18.0657 67.968 18.0854 68.0286 18.1311C68.0892 18.1767 68.1293 18.2444 68.14 18.3195C68.1433 18.3461 68.1433 18.373 68.14 18.3995V50.1228C68.14 50.7328 68.1667 51.3928 68.22 52.1095C68.2733 52.8228 68.32 53.4662 68.3533 54.0395C68.3603 54.1499 68.3334 54.2598 68.2762 54.3546C68.219 54.4493 68.1343 54.5243 68.0333 54.5695V54.5695ZM59.8433 35.1962C60.1433 35.2262 60.44 35.2795 60.73 35.3562V50.0062C60.3457 50.1205 59.95 50.192 59.55 50.2195C59.0854 50.257 58.6194 50.2747 58.1533 50.2728C57.2141 50.2772 56.2802 50.132 55.3867 49.8428C54.5418 49.5769 53.7704 49.1181 53.1333 48.5028C52.4687 47.8331 51.956 47.0282 51.63 46.1428C51.2306 45.0422 51.0395 43.8768 51.0667 42.7062C50.9964 41.2142 51.3799 39.7359 52.1667 38.4662C52.8767 37.4128 53.8467 36.5628 54.9833 35.9962C56.15 35.4195 57.4367 35.1228 58.74 35.1362C59.11 35.1428 59.4767 35.1595 59.8433 35.1962Z" fill="#0ABAB5"/>
</g>
<defs>
<clipPath id="clip0">
<rect width="80" height="80" fill="white"/>
</clipPath>
</defs>
</svg>
