<?xml version="1.0" encoding="UTF-8"?>
<!DOCTYPE svg PUBLIC "-//W3C//DTD SVG 1.1//EN" "http://www.w3.org/Graphics/SVG/1.1/DTD/svg11.dtd">
<!-- Creator: CorelDRAW 2018 (64-Bit) -->
<svg xmlns="http://www.w3.org/2000/svg" xml:space="preserve" width="192px" height="32px" version="1.1" style="shape-rendering:geometricPrecision; text-rendering:geometricPrecision; image-rendering:optimizeQuality; fill-rule:evenodd; clip-rule:evenodd"
viewBox="0 0 192 32"
 xmlns:xlink="http://www.w3.org/1999/xlink">
 <defs>
  <style type="text/css">
   <![CDATA[
    .fil0 {fill:white}
    .fil1 {fill:white;fill-rule:nonzero}
   ]]>
  </style>
 </defs>
 <g id="Layer_x0020_1">
  <metadata id="CorelCorpID_0Corel-Layer"/>
  <g id="_1644116450256">
   <path class="fil0" d="M15.88 0c8.84,0 16.01,7.16 16.01,16 0,8.84 -7.17,16 -16.01,16 -8.83,0 -16,-7.16 -16,-16 0,-8.84 7.17,-16 16,-16zm-8.68 26.86c-0.03,-0.03 -0.06,-0.06 -0.1,-0.08 4.06,-0.59 3.07,-4.4 3.07,-7.89 0,-1.3 0.34,-2.29 1.06,-2.91 -0.72,-0.59 -1.06,-1.58 -1.06,-2.88 0,-3.48 0.81,-7.19 -3.09,-7.86 0.04,-0.04 0.08,-0.07 0.13,-0.11 3.28,0.01 6.56,0.01 9.84,0.01 3.79,0 6.86,2.45 6.86,6.21 0,1.8 -0.71,3.22 -1.89,4.25 1.61,1.02 2.67,2.7 2.67,4.9 0,3.85 -3.14,6.37 -7.02,6.37l-0.31 0c0.64,-0.56 1.19,-1.3 1.64,-2.22 0.47,-0.97 0.71,-2.01 0.71,-3.12 0,-0.82 -0.12,-1.52 -0.37,-2.09 -0.25,-0.56 -0.59,-0.99 -1.03,-1.28 -0.28,-0.19 -0.58,-0.31 -0.89,-0.38 -0.24,-0.06 -0.49,-0.09 -0.75,-0.09 -0.77,0 -1.44,0.24 -1.98,0.72 -0.55,0.48 -0.82,1.16 -0.82,2.03 0,0.53 0.12,1 0.38,1.42 0.25,0.41 0.59,0.73 1.01,0.98 0.43,0.24 0.89,0.37 1.41,0.37 0.07,0 0.14,0 0.21,-0.01 -0.18,1.84 -2.77,2.56 -2.62,3.66 -2.37,0 -5.17,0 -7.06,0zm6.67 -15.82c0,-0.92 0.28,-1.64 0.86,-2.15 0.58,-0.5 1.28,-0.75 2.1,-0.75 0.8,0 1.47,0.26 2.05,0.77 0.57,0.51 0.85,1.22 0.85,2.13 0,0.74 -0.3,1.41 -0.9,2.02 -0.61,0.6 -1.27,0.9 -2,0.9 -0.55,0 -1.04,-0.13 -1.49,-0.39 -0.45,-0.26 -0.81,-0.61 -1.07,-1.04 -0.27,-0.44 -0.4,-0.93 -0.4,-1.49z"/>
   <path class="fil1" d="M192.12 28.54l-4.77 0 0 -2.2c-1.3,1.65 -2.92,2.47 -4.85,2.47 -1.92,0 -3.54,-0.56 -4.85,-1.68 -1.3,-1.11 -1.96,-2.6 -1.96,-4.46 0,-1.86 0.68,-3.25 2.03,-4.17 1.35,-0.92 3.2,-1.39 5.54,-1.39l3.79 0 0 -0.1c0,-1.93 -1.03,-2.9 -3.08,-2.9 -0.87,0 -1.8,0.17 -2.78,0.52 -0.98,0.35 -1.81,0.78 -2.49,1.3l-2.26 -3.28c2.39,-1.73 5.11,-2.6 8.18,-2.6 2.2,0 4.01,0.55 5.4,1.66 1.4,1.1 2.1,2.85 2.1,5.24l0 11.59zm-5.1 -6.93l0 -0.88 -3.18 0c-2.03,0 -3.04,0.63 -3.04,1.89 0,0.66 0.24,1.16 0.72,1.51 0.49,0.35 1.18,0.52 2.08,0.52 0.9,0 1.7,-0.28 2.39,-0.83 0.68,-0.55 1.03,-1.29 1.03,-2.21z"/>
   <path class="fil1" d="M172.52 14.82c-1.51,0 -2.64,0.53 -3.38,1.6 -0.75,1.07 -1.12,2.49 -1.12,4.24l0 7.88 -5.07 0 0 -18.18 5.07 0 0 2.39c0.66,-0.74 1.47,-1.37 2.45,-1.89 0.98,-0.52 1.98,-0.79 2.99,-0.81l0.04 4.77 -0.98 0z"/>
   <path class="fil1" d="M158.32 28.54l-4.76 0 0 -2.2c-1.31,1.65 -2.93,2.47 -4.85,2.47 -1.93,0 -3.55,-0.56 -4.85,-1.68 -1.31,-1.11 -1.96,-2.6 -1.96,-4.46 0,-1.86 0.67,-3.25 2.02,-4.17 1.36,-0.92 3.2,-1.39 5.55,-1.39l3.78 0 0 -0.1c0,-1.93 -1.02,-2.9 -3.07,-2.9 -0.88,0 -1.81,0.17 -2.79,0.52 -0.98,0.35 -1.81,0.78 -2.49,1.3l-2.26 -3.28c2.39,-1.73 5.11,-2.6 8.18,-2.6 2.21,0 4.01,0.55 5.41,1.66 1.39,1.1 2.09,2.85 2.09,5.24l0 11.59zm-5.1 -6.93l0 -0.88 -3.18 0c-2.03,0 -3.04,0.63 -3.04,1.89 0,0.66 0.24,1.16 0.73,1.51 0.48,0.35 1.17,0.52 2.07,0.52 0.91,0 1.7,-0.28 2.39,-0.83 0.68,-0.55 1.03,-1.29 1.03,-2.21z"/>
   <path class="fil1" d="M130.84 10.05c2.21,0 4.14,0.86 5.78,2.59 1.65,1.72 2.47,3.93 2.47,6.64 0,2.7 -0.84,4.96 -2.53,6.79 -1.69,1.82 -3.62,2.74 -5.77,2.74 -2.15,0 -3.93,-0.89 -5.35,-2.67l0 2.4 -5.07 0 0 -25.08 5.07 0 0 8.92c1.39,-1.55 3.2,-2.33 5.4,-2.33zm-5.47 9.41c0,1.48 0.41,2.68 1.23,3.62 0.82,0.93 1.82,1.4 2.99,1.4 1.17,0 2.2,-0.47 3.08,-1.4 0.88,-0.94 1.32,-2.14 1.32,-3.6 0,-1.46 -0.43,-2.69 -1.29,-3.68 -0.85,-0.99 -1.88,-1.49 -3.07,-1.49 -1.2,0 -2.21,0.49 -3.03,1.47 -0.82,0.98 -1.23,2.21 -1.23,3.68z"/>
   <path class="fil1" d="M110.46 20.16l0 -9.8 5.11 0 0 18.18 -5.11 0 0 -2.4c-1.26,1.78 -2.89,2.67 -4.88,2.67 -1.99,0 -3.67,-0.63 -5.02,-1.88 -1.35,-1.25 -2.03,-3.1 -2.03,-5.56l0 -11.01 5.11 0 0 9.9c0,2.79 1.02,4.19 3.07,4.19 1.01,0 1.89,-0.37 2.64,-1.1 0.74,-0.73 1.11,-1.8 1.11,-3.19z"/>
   <path class="fil1" d="M89.91 14.01l0 8.14c0,0.7 0.18,1.24 0.54,1.64 0.36,0.39 0.79,0.59 1.29,0.59 0.94,0 1.75,-0.43 2.4,-1.28l1.89 3.54c-1.58,1.45 -3.24,2.17 -4.98,2.17 -1.75,0 -3.23,-0.58 -4.43,-1.73 -1.21,-1.15 -1.81,-2.71 -1.81,-4.69l0 -8.38 -2.13 0 0 -3.65 2.13 0 0 -5.45 5.1 0 0 5.45 4.4 0 0 3.65 -4.4 0z"/>
   <path class="fil1" d="M79.44 28.54l-4.77 0 0 -2.2c-1.31,1.65 -2.92,2.47 -4.85,2.47 -1.93,0 -3.54,-0.56 -4.85,-1.68 -1.31,-1.11 -1.96,-2.6 -1.96,-4.46 0,-1.86 0.68,-3.25 2.03,-4.17 1.35,-0.92 3.2,-1.39 5.54,-1.39l3.79 0 0 -0.1c0,-1.93 -1.03,-2.9 -3.08,-2.9 -0.88,0 -1.81,0.17 -2.79,0.52 -0.98,0.35 -1.81,0.78 -2.48,1.3l-2.27 -3.28c2.39,-1.73 5.12,-2.6 8.18,-2.6 2.21,0 4.01,0.55 5.41,1.66 1.4,1.1 2.1,2.85 2.1,5.24l0 11.59zm-5.11 -6.93l0 -0.88 -3.17 0c-2.03,0 -3.05,0.63 -3.05,1.89 0,0.66 0.25,1.16 0.73,1.51 0.48,0.35 1.18,0.52 2.08,0.52 0.9,0 1.7,-0.28 2.38,-0.83 0.69,-0.55 1.03,-1.29 1.03,-2.21z"/>
   <path class="fil1" d="M51.96 10.05c2.21,0 4.13,0.86 5.78,2.59 1.64,1.72 2.47,3.93 2.47,6.64 0,2.7 -0.85,4.96 -2.54,6.79 -1.69,1.82 -3.61,2.74 -5.76,2.74 -2.15,0 -3.94,-0.89 -5.36,-2.67l0 2.4 -5.07 0 0 -25.08 5.07 0 0 8.92c1.4,-1.55 3.2,-2.33 5.41,-2.33zm-5.48 9.41c0,1.48 0.41,2.68 1.24,3.62 0.82,0.93 1.82,1.4 2.99,1.4 1.17,0 2.19,-0.47 3.07,-1.4 0.88,-0.94 1.32,-2.14 1.32,-3.6 0,-1.46 -0.43,-2.69 -1.28,-3.68 -0.86,-0.99 -1.88,-1.49 -3.08,-1.49 -1.19,0 -2.2,0.49 -3.02,1.47 -0.83,0.98 -1.24,2.21 -1.24,3.68z"/>
  </g>
 </g>
</svg>
