<?xml version="1.0" encoding="UTF-8"?>
<!DOCTYPE svg PUBLIC "-//W3C//DTD SVG 1.1//EN" "http://www.w3.org/Graphics/SVG/1.1/DTD/svg11.dtd">
<!-- Creator: CorelDRAW 2018 (64-Bit) -->
<svg xmlns="http://www.w3.org/2000/svg" xml:space="preserve" width="120px" height="131px" version="1.1" style="shape-rendering:geometricPrecision; text-rendering:geometricPrecision; image-rendering:optimizeQuality; fill-rule:evenodd; clip-rule:evenodd"
viewBox="0 0 120 131"
 xmlns:xlink="http://www.w3.org/1999/xlink">
 <defs>
  <style type="text/css">
   <![CDATA[
    .fil4 {fill:#099E9A;fill-rule:nonzero}
    .fil3 {fill:#0ABAB5;fill-rule:nonzero}
    .fil2 {fill:#2FDF84;fill-rule:nonzero}
    .fil5 {fill:#323337;fill-rule:nonzero}
    .fil1 {fill:#D5DBE1;fill-rule:nonzero}
    .fil0 {fill:#F8F9FA;fill-rule:nonzero}
   ]]>
  </style>
 </defs>
 <g id="Layer_x0020_1">
  <metadata id="CorelCorpID_0Corel-Layer"/>
  <path class="fil0" d="M96.09 13.63c-25.94,0 -43.75,-13.44 -56.25,-13.44 -12.5,0 -38.75,7.19 -38.75,64.68 0,57.5 35.31,65.94 49.06,65.94 64.38,0 91.87,-117.18 45.94,-117.18z"/>
  <path class="fil1" d="M54.38 13c-3.11,0 -5.63,-2.52 -5.63,-5.62 0,-3.11 2.52,-5.63 5.63,-5.63 3.1,0 5.62,2.52 5.62,5.63 0,3.1 -2.52,5.62 -5.62,5.62zm0 -7.5c-1.04,0 -1.88,0.84 -1.88,1.88 0,1.03 0.84,1.87 1.88,1.87 1.03,0 1.87,-0.84 1.87,-1.87 0,-1.04 -0.84,-1.88 -1.87,-1.88z"/>
  <polygon class="fil2" points="17.81,32.69 27.19,32.69 27.19,23.31 17.81,23.31 "/>
  <path class="fil2" d="M95.63 73.94c-2.59,0 -4.69,-2.1 -4.69,-4.69 0,-2.59 2.1,-4.69 4.69,-4.69 2.58,0 4.68,2.1 4.68,4.69 0,2.59 -2.1,4.69 -4.68,4.69z"/>
  <path class="fil3" d="M75.94 107.69l-3.32 -24.87c-0.25,-1.87 -1.84,-3.26 -3.71,-3.26l-17.81 0c-1.88,0 -3.47,1.39 -3.72,3.26l-3.32 24.87 31.88 0z"/>
  <path class="fil2" d="M24.37 73.94c-2.58,0 -4.68,-2.1 -4.68,-4.69 0,-2.59 2.1,-4.69 4.68,-4.69 2.59,0 4.69,2.1 4.69,4.69 0,2.59 -2.1,4.69 -4.69,4.69z"/>
  <polygon class="fil2" points="92.81,32.69 102.19,32.69 102.19,23.31 92.81,23.31 "/>
  <polygon class="fil0" points="66.59,79.56 75.94,65.87 60,28.94 44.06,65.87 53.41,79.56 "/>
  <polygon class="fil3" points="17.81,32.69 26.25,32.69 26.25,23.31 17.81,23.31 "/>
  <path class="fil3" d="M99.38 69.25c0,-0.71 0.18,-1.37 0.46,-1.97 -0.75,-1.6 -2.34,-2.72 -4.21,-2.72 -2.59,0 -4.69,2.1 -4.69,4.69 0,2.59 2.1,4.69 4.69,4.69 1.87,0 3.46,-1.12 4.21,-2.72 -0.28,-0.6 -0.46,-1.26 -0.46,-1.97z"/>
  <path class="fil4" d="M59.53 79.56l-8.44 0c-1.87,0 -3.46,1.39 -3.71,3.26l-3.32 24.87 8.44 0 3.32 -24.87c0.25,-1.87 1.83,-3.26 3.71,-3.26z"/>
  <path class="fil3" d="M28.12 69.25c0,-0.71 0.19,-1.37 0.47,-1.97 -0.74,-1.6 -2.34,-2.72 -4.22,-2.72 -2.58,0 -4.68,2.1 -4.68,4.69 0,2.59 2.1,4.69 4.68,4.69 1.88,0 3.48,-1.12 4.22,-2.72 -0.28,-0.6 -0.47,-1.26 -0.47,-1.97z"/>
  <polygon class="fil3" points="92.81,32.69 101.25,32.69 101.25,23.31 92.81,23.31 "/>
  <polygon class="fil1" points="64.22,38.71 60,28.94 44.06,65.87 53.41,79.56 61.85,79.56 52.5,65.87 "/>
  <path class="fil5" d="M98.44 63.63l-5.63 0c0,-18.1 -14.72,-32.82 -32.81,-32.82 -18.09,0 -32.81,14.72 -32.81,32.82l-5.63 0c0,-21.2 17.24,-38.44 38.44,-38.44 21.2,0 38.44,17.24 38.44,38.44z"/>
  <path class="fil5" d="M27.19 35.5l-9.38 0c-1.55,0 -2.81,-1.26 -2.81,-2.81l0 -9.38c0,-1.55 1.26,-2.81 2.81,-2.81l9.38 0c1.55,0 2.81,1.26 2.81,2.81l0 9.38c0,1.55 -1.26,2.81 -2.81,2.81zm-6.57 -5.62l3.75 0 0 -3.75 -3.75 0 0 3.75z"/>
  <path class="fil5" d="M95.63 76.75c-4.14,0 -7.51,-3.36 -7.51,-7.5 0,-4.14 3.37,-7.5 7.51,-7.5 4.13,0 7.5,3.36 7.5,7.5 0,4.14 -3.37,7.5 -7.5,7.5zm0 -9.38c-1.04,0 -1.88,0.85 -1.88,1.88 0,1.04 0.84,1.88 1.88,1.88 1.03,0 1.87,-0.84 1.87,-1.88 0,-1.03 -0.84,-1.88 -1.87,-1.88z"/>
  <polygon class="fil5" points="28.12,30.81 91.88,30.81 91.88,25.19 28.12,25.19 "/>
  <path class="fil5" d="M68.91 81.15l-4.64 -3.17 8.47 -12.41 -12.74 -29.53 -12.74 29.53 8.47 12.41 -4.64 3.17 -9.35 -13.69c-0.54,-0.79 -0.64,-1.81 -0.26,-2.7l15.94 -36.94c0.89,-2.05 4.27,-2.05 5.16,0l15.94 36.94c0.38,0.89 0.29,1.91 -0.26,2.7l-9.35 13.69z"/>
  <path class="fil5" d="M73.52 110.85l-3.69 -27.66c-0.06,-0.47 -0.46,-0.81 -0.93,-0.81l-17.81 0c-0.47,0 -0.86,0.34 -0.93,0.81l-3.68 27.66 -5.58 -0.75 3.69 -27.66c0.44,-3.24 3.23,-5.69 6.5,-5.69l17.81 0c3.28,0 6.07,2.45 6.51,5.69l3.69 27.66 -5.58 0.75z"/>
  <polygon class="fil5" points="57.19,61.75 62.81,61.75 62.81,30.81 57.19,30.81 "/>
  <path class="fil5" d="M24.37 76.75c-4.13,0 -7.5,-3.36 -7.5,-7.5 0,-4.14 3.37,-7.5 7.5,-7.5 4.14,0 7.51,3.36 7.51,7.5 0,4.14 -3.37,7.5 -7.51,7.5zm0 -9.38c-1.03,0 -1.87,0.85 -1.87,1.88 0,1.04 0.84,1.88 1.87,1.88 1.04,0 1.88,-0.84 1.88,-1.88 0,-1.03 -0.84,-1.88 -1.88,-1.88z"/>
  <path class="fil5" d="M102.19 35.5l-9.38 0c-1.55,0 -2.81,-1.26 -2.81,-2.81l0 -9.38c0,-1.55 1.26,-2.81 2.81,-2.81l9.38 0c1.55,0 2.81,1.26 2.81,2.81l0 9.38c0,1.55 -1.26,2.81 -2.81,2.81zm-6.56 -5.62l3.75 0 0 -3.75 -3.75 0 0 3.75z"/>
  <polygon class="fil5" points="0,111.44 120,111.44 120,105.81 0,105.81 "/>
 </g>
</svg>
