<svg xmlns="http://www.w3.org/2000/svg" xmlns:xlink="http://www.w3.org/1999/xlink" width="100" height="100" viewBox="0 0 100 100"><defs><clipPath id="a"><rect width="100" height="100" transform="translate(1007 1048)" fill="#0abab5"/></clipPath></defs><g transform="translate(-1007 -1048)" clip-path="url(#a)"><g transform="translate(1007 1048)"><rect width="100" height="100" fill="none"/><path d="M55.417,12.5h.833c16.875,0,31.25,11.458,31.25,25S84.167,60.417,58.333,60.417C50.417,60.417,46.25,65,45,69.375a11.458,11.458,0,0,0,4.792,12.708c2.083,1.25,2.083,2.708,1.875,3.542A2.5,2.5,0,0,1,48.958,87.5C23.75,87.5,12.5,68.75,12.5,50S31.667,12.5,55.208,12.5h.208m-.208-8.333C27.083,4.167,4.167,24.583,4.167,50S20.833,95.833,48.958,95.833c11.458,0,15.625-14.583,5.208-20.833-1.875-1.25-2.083-6.25,4.167-6.25,18.75,0,37.5-6.25,37.5-31.25,0-18.75-18.75-33.333-39.583-33.333Z" fill="#0abab5"/><path d="M43.75,20.833A6.25,6.25,0,1,0,50,27.083a6.042,6.042,0,0,0-6.25-6.25Z" fill="#0abab5"/><path d="M29.167,31.25a6.25,6.25,0,1,0,6.25,6.25,6.042,6.042,0,0,0-6.25-6.25Z" fill="#0abab5"/><path d="M60.417,18.75A6.25,6.25,0,1,0,66.667,25a6.042,6.042,0,0,0-6.25-6.25Z" fill="#0abab5"/><path d="M75,29.167a6.25,6.25,0,1,0,6.25,6.25A6.042,6.042,0,0,0,75,29.167Z" fill="#0abab5"/></g></g></svg>