<svg xmlns="http://www.w3.org/2000/svg" xmlns:xlink="http://www.w3.org/1999/xlink" width="100" height="100" viewBox="0 0 100 100"><defs><clipPath id="a"><rect width="100" height="100" transform="translate(633 1048)" fill="#0abab5"/></clipPath></defs><g transform="translate(-633 -1048)" clip-path="url(#a)"><g transform="translate(633 1048)"><rect width="100" height="100" fill="none"/><path d="M87.5,47.917v37.5H70.833v-37.5H87.5m4.167-8.333h-25A4.167,4.167,0,0,0,62.5,43.75V89.583a4.167,4.167,0,0,0,4.167,4.167h25a4.167,4.167,0,0,0,4.167-4.167V43.75A4.167,4.167,0,0,0,91.667,39.583Z" fill="#0abab5"/><path d="M79.167,14.583H14.583a4.167,4.167,0,0,0-4.167,4.167V64.583a4.167,4.167,0,0,0,4.167,4.167H54.167V60.417H18.75v-37.5H75V31.25h8.333V18.75A4.167,4.167,0,0,0,79.167,14.583Z" fill="#0abab5"/><path d="M54.167,77.083v8.333H8.333a4.167,4.167,0,0,1,0-8.333Z" fill="#0abab5"/></g></g></svg>