<?xml version="1.0" encoding="UTF-8"?>
<!DOCTYPE svg PUBLIC "-//W3C//DTD SVG 1.1//EN" "http://www.w3.org/Graphics/SVG/1.1/DTD/svg11.dtd">
<!-- Creator: CorelDRAW 2018 (64-Bit) -->
<svg xmlns="http://www.w3.org/2000/svg" xml:space="preserve" width="120px" height="133px" version="1.1" style="shape-rendering:geometricPrecision; text-rendering:geometricPrecision; image-rendering:optimizeQuality; fill-rule:evenodd; clip-rule:evenodd"
viewBox="0 0 120 133"
 xmlns:xlink="http://www.w3.org/1999/xlink">
 <defs>
  <style type="text/css">
   <![CDATA[
    .fil4 {fill:#099E9A;fill-rule:nonzero}
    .fil2 {fill:#0ABAB5;fill-rule:nonzero}
    .fil5 {fill:#323337;fill-rule:nonzero}
    .fil1 {fill:#D5DBE1;fill-rule:nonzero}
    .fil3 {fill:#F3F3F1;fill-rule:nonzero}
    .fil0 {fill:#F8F9FA;fill-rule:nonzero}
   ]]>
  </style>
 </defs>
 <g id="Layer_x0020_1">
  <metadata id="CorelCorpID_0Corel-Layer"/>
  <g id="_2108665350544">
   <path class="fil0" d="M23.25 119.34c26.42,0 44.56,13.68 57.29,13.68 12.73,0 39.46,-7.32 39.46,-65.88 0,-58.56 -35.96,-67.16 -49.97,-67.16 -65.56,0 -93.57,119.36 -46.78,119.36z"/>
   <path class="fil1" d="M27.54 16.85c-3.16,0 -5.73,-2.57 -5.73,-5.73 0,-3.16 2.57,-5.73 5.73,-5.73 3.16,0 5.73,2.57 5.73,5.73 0,3.16 -2.57,5.73 -5.73,5.73zm0 -7.64c-1.05,0 -1.91,0.86 -1.91,1.91 0,1.05 0.86,1.91 1.91,1.91 1.05,0 1.91,-0.86 1.91,-1.91 0,-1.05 -0.86,-1.91 -1.91,-1.91z"/>
   <path class="fil2" d="M66.69 98.01c0,0 0.93,6.74 5.65,11.46l0.07 0 -24.82 0c4.77,-4.77 5.65,-11.46 5.65,-11.46l13.45 0z"/>
   <path class="fil3" d="M99.15 38.81c2.1,0 3.82,1.72 3.82,3.82l0 42.02 -85.94 0 0 -42.02c0,-2.1 1.72,-3.82 3.82,-3.82l78.3 0z"/>
   <path class="fil2" d="M20.85 98.01l78.3 0c2.11,0 3.82,-1.71 3.82,-3.82l0 -9.54 -85.94 0 0 9.54c0,2.11 1.71,3.82 3.82,3.82z"/>
   <path class="fil4" d="M53.24 98.01c0,0 -0.88,6.69 -5.65,11.46l8.59 0c4.78,-4.77 5.65,-11.46 5.65,-11.46l-8.59 0z"/>
   <path class="fil4" d="M25.63 94.19l0 -9.54 -8.6 0 0 9.54c0,2.11 1.71,3.82 3.82,3.82l8.6 0c-2.11,0 -3.82,-1.71 -3.82,-3.82z"/>
   <path class="fil1" d="M29.45 38.81l-8.6 0c-2.1,0 -3.82,1.72 -3.82,3.82l0 42.02 8.6 0 0 -42.02c0,-2.1 1.72,-3.82 3.82,-3.82z"/>
   <path class="fil5" d="M99.15 100.88l-78.3 0c-3.68,0 -6.68,-3 -6.68,-6.69l0 -51.56c0,-3.68 3,-6.68 6.68,-6.68l8.6 0 0 5.73 -8.6 0c-0.52,0 -0.95,0.43 -0.95,0.95l0 51.56c0,0.53 0.43,0.96 0.95,0.96l78.3 0c0.53,0 0.95,-0.43 0.95,-0.96l0 -51.56c0,-0.52 -0.42,-0.95 -0.95,-0.95l-8.6 0 0 -5.73 8.6 0c3.68,0 6.68,3 6.68,6.68l0 51.56c0,3.69 -3,6.69 -6.68,6.69z"/>
   <polygon class="fil5" points="17.03,87.51 102.97,87.51 102.97,81.78 17.03,81.78 "/>
   <path class="fil5" d="M72.41 112.33l-24.82 0c-1.16,0 -2.21,-0.69 -2.65,-1.76 -0.44,-1.07 -0.2,-2.31 0.62,-3.12 4,-4 4.84,-9.76 4.85,-9.82l5.67 0.76c-0.02,0.22 -0.56,4.07 -2.84,8.22l13.46 0c-2.26,-4.13 -2.82,-7.98 -2.85,-8.2l5.67 -0.8c0.01,0.06 0.85,5.57 4.53,9.51 0.74,0.52 1.23,1.38 1.23,2.35 0,1.58 -1.28,2.86 -2.87,2.86z"/>
   <path class="fil5" d="M40.9 51.46l-4.05 -4.05 11.46 -11.46 -11.46 -11.46 4.05 -4.05 13.49 13.48c1.12,1.12 1.12,2.93 0,4.05l-13.49 13.49z"/>
   <polygon class="fil5" points="60,51.23 82.92,51.23 82.92,45.5 60,45.5 "/>
  </g>
 </g>
</svg>
