<?xml version="1.0" encoding="UTF-8"?>
<!DOCTYPE svg PUBLIC "-//W3C//DTD SVG 1.1//EN" "http://www.w3.org/Graphics/SVG/1.1/DTD/svg11.dtd">
<!-- Creator: CorelDRAW 2018 (64-Bit) -->
<svg xmlns="http://www.w3.org/2000/svg" xml:space="preserve" width="73px" height="80px" version="1.1" style="shape-rendering:geometricPrecision; text-rendering:geometricPrecision; image-rendering:optimizeQuality; fill-rule:evenodd; clip-rule:evenodd"
viewBox="0 0 73 80"
 xmlns:xlink="http://www.w3.org/1999/xlink">
 <defs>
  <style type="text/css">
   <![CDATA[
    .fil0 {fill:url(#id0);fill-rule:nonzero}
    .fil1 {fill:url(#id1);fill-rule:nonzero}
   ]]>
  </style>
  <linearGradient id="id0" gradientUnits="userSpaceOnUse" x1="-5.19" y1="-2.82" x2="74.19" y2="77.77">
   <stop offset="0" style="stop-opacity:1; stop-color:#0ABAB5"/>
   <stop offset="1" style="stop-opacity:1; stop-color:#32EBE5"/>
  </linearGradient>
  <linearGradient id="id1" gradientUnits="userSpaceOnUse" xlink:href="#id0" x1="-5.19" y1="-2.82" x2="74.19" y2="77.77">
  </linearGradient>
 </defs>
 <g id="Layer_x0020_1">
  <metadata id="CorelCorpID_0Corel-Layer"/>
  <g id="_2708480078384">
   <path class="fil0" d="M63.27 67.14l-25.14 9.43 -28.42 -9.48 -6.37 -63.76 66.31 0 -6.38 63.81zm9.47 -66.59c-0.32,-0.35 -0.77,-0.55 -1.24,-0.55l-70 0c-0.47,0 -0.92,0.2 -1.24,0.55 -0.31,0.35 -0.47,0.81 -0.42,1.28l6.67 66.67c0.06,0.65 0.5,1.21 1.13,1.41l30 10c0.16,0.06 0.34,0.09 0.51,0.09l0.01 0c0.2,0 0.4,-0.04 0.59,-0.11l26.67 -10c0.59,-0.22 1.01,-0.76 1.07,-1.39l6.67 -66.67c0.01,-0.05 0.01,-0.1 0.01,-0.15l0 -0.03c0,-0.4 -0.16,-0.8 -0.43,-1.1z"/>
   <path class="fil1" d="M19.83 36.67l33.06 0 -2.89 18.78 -11.87 4.45 -13.52 -4.51 -1.48 -7.38c-0.18,-0.9 -1.05,-1.49 -1.96,-1.31 -0.9,0.18 -1.49,1.06 -1.31,1.96l1.67 8.33c0.12,0.59 0.54,1.07 1.11,1.26l15 5c0.17,0.06 0.35,0.08 0.52,0.08 0.2,0 0.4,-0.03 0.59,-0.1l13.33 -5c0.57,-0.21 0.97,-0.71 1.06,-1.31l3.34 -21.67c0.07,-0.48 -0.07,-0.97 -0.39,-1.34 -0.31,-0.37 -0.77,-0.58 -1.26,-0.58l-33.49 0 -1.33 -13.33 38.15 0c0.92,0 1.67,-0.75 1.67,-1.67 0,-0.92 -0.75,-1.66 -1.67,-1.66l-40 0c-0.47,0 -0.92,0.2 -1.23,0.55 -0.32,0.34 -0.47,0.81 -0.43,1.28l1.67 16.67c0.09,0.85 0.8,1.5 1.66,1.5z"/>
  </g>
 </g>
</svg>
