<svg width="80" height="80" viewBox="0 0 80 80" fill="none" xmlns="http://www.w3.org/2000/svg">
<path d="M35.1 35.7662C34.7667 34.7328 34.4667 33.7328 34.1333 32.6995C33.8 31.6662 33.5 30.6995 33.2333 29.7328C32.9667 28.7995 32.7333 27.9328 32.5 27.1328H32.4333C32.1333 28.5662 31.7667 29.9995 31.3 31.4328C30.8 33.0328 30.3 34.6995 29.7667 36.3662C29.3 38.0662 28.8 39.6328 28.3 41.0328H36.7667C36.5667 40.3295 36.3 39.4995 36 38.6295C35.7 37.7328 35.4 36.7662 35.1 35.7662V35.7662ZM65.8333 0.999512H14.1667C6.33333 0.999512 0 7.33285 0 15.1662V64.8329C0 72.6662 6.33333 78.9995 14.1667 78.9995H65.8333C73.6667 78.9995 80 72.6662 80 64.8329V15.1662C80 7.33285 73.6667 0.999512 65.8333 0.999512ZM49 56.0995H42.03C41.8 56.1328 41.5667 55.9662 41.5 55.7328L38.7667 47.7995H26.3667L23.8333 55.6329C23.7667 55.9329 23.5 56.1328 23.2 56.1028H16.9333C16.5667 56.1028 16.4667 55.8995 16.5667 55.5028L27.3 24.5995C27.4 24.2662 27.5 23.8995 27.6333 23.4995C27.7667 22.7995 27.8333 22.0662 27.8333 21.3328C27.8 21.1662 27.9333 20.9995 28.1 20.9662H36.7333C37 20.9662 37.1333 21.0662 37.1667 21.2328L49.3333 55.5662C49.4333 55.9295 49.3333 56.0995 49 56.0995V56.0995ZM60.3333 55.5995C60.3333 55.9662 60.2033 56.1329 59.9033 56.1329H53.3667C53.0333 56.1329 52.8667 55.9295 52.8667 55.5995V29.9328C52.8667 29.5995 53.0033 29.4662 53.3033 29.4662H59.9033C60.2033 29.4662 60.3333 29.6328 60.3333 29.9328V55.5995V55.5995ZM59.6367 25.4995C59.243 25.8993 58.7684 26.2103 58.2446 26.4115C57.7208 26.6127 57.1601 26.6996 56.6 26.6662C55.5 26.6995 54.4333 26.2662 53.63 25.4995C52.8663 24.6645 52.4595 23.5638 52.4967 22.4328C52.4633 21.2995 52.8967 20.2328 53.6933 19.4662C54.5 18.6995 55.5667 18.2995 56.6667 18.2995C57.97 18.2995 58.9633 18.6995 59.7 19.4662C60.4333 20.2662 60.8333 21.3328 60.8 22.4328C60.8333 23.5662 60.4333 24.6662 59.6367 25.4995V25.4995Z" fill="#0ABAB5"/>
</svg>
