<?xml version="1.0" encoding="UTF-8"?>
<!DOCTYPE svg PUBLIC "-//W3C//DTD SVG 1.1//EN" "http://www.w3.org/Graphics/SVG/1.1/DTD/svg11.dtd">
<!-- Creator: CorelDRAW 2018 (64-Bit) -->
<svg xmlns="http://www.w3.org/2000/svg" xml:space="preserve" width="144px" height="144px" version="1.1" style="shape-rendering:geometricPrecision; text-rendering:geometricPrecision; image-rendering:optimizeQuality; fill-rule:evenodd; clip-rule:evenodd"
viewBox="0 0 144 144"
 xmlns:xlink="http://www.w3.org/1999/xlink">
 <defs>
  <style type="text/css">
   <![CDATA[
    .fil0 {fill:url(#id0)}
   ]]>
  </style>
  <linearGradient id="id0" gradientUnits="userSpaceOnUse" x1="7.82" y1="36.35" x2="132.19" y2="108.04">
   <stop offset="0" style="stop-opacity:1; stop-color:#2298BD"/>
   <stop offset="1" style="stop-opacity:1; stop-color:#0ED7B5"/>
  </linearGradient>
 </defs>
 <g id="Layer_x0020_1">
  <metadata id="CorelCorpID_0Corel-Layer"/>
  <g id="_1828107241504">
   <g>
    <path class="fil0" d="M72 28.8c-19.2,0 -31.2,9.6 -36,28.8 7.2,-9.6 15.6,-13.2 25.2,-10.8 5.48,1.37 9.39,5.34 13.73,9.74 7.06,7.17 15.23,15.46 33.07,15.46 19.2,0 31.2,-9.6 36,-28.8 -7.2,9.6 -15.6,13.2 -25.2,10.8 -5.48,-1.37 -9.39,-5.34 -13.73,-9.74 -7.05,-7.17 -15.22,-15.46 -33.07,-15.46zm-36 43.2c-19.2,0 -31.2,9.6 -36,28.8 7.2,-9.6 15.6,-13.2 25.2,-10.8 5.48,1.37 9.39,5.34 13.73,9.74 7.05,7.17 15.22,15.46 33.07,15.46 19.2,0 31.2,-9.6 36,-28.8 -7.2,9.6 -15.6,13.2 -25.2,10.8 -5.48,-1.37 -9.39,-5.34 -13.73,-9.74 -7.06,-7.17 -15.23,-15.46 -33.07,-15.46z"/>
   </g>
  </g>
 </g>
</svg>
