<svg xmlns="http://www.w3.org/2000/svg" xmlns:xlink="http://www.w3.org/1999/xlink" width="100" height="100" viewBox="0 0 100 100"><defs><clipPath id="a"><rect width="100" height="100" transform="translate(259 1048)" fill="#0abab5"/></clipPath></defs><g transform="translate(-259 -1048)" clip-path="url(#a)"><g transform="translate(259 1048)"><rect width="100" height="100" fill="none"/><rect width="100" height="100" fill="none"/><rect width="100" height="100" fill="none"/><path d="M92.708,43.75a3.125,3.125,0,0,0-6.25,0A36.25,36.25,0,0,1,52.292,80L75,47.5,64.583,14.583l1.458-7.917a2.083,2.083,0,0,0-2.083-2.5H36.042a2.083,2.083,0,0,0-2.083,2.5l1.458,7.917L25,47.5,47.708,80A36.25,36.25,0,0,1,13.542,43.75a3.125,3.125,0,0,0-6.25,0A42.917,42.917,0,0,0,36.875,84.375H25V83.333a4.167,4.167,0,0,0-4.167-4.167H12.5a4.167,4.167,0,0,0-4.167,4.167v8.333A4.167,4.167,0,0,0,12.5,95.833h8.333A4.167,4.167,0,0,0,25,91.667V90.625H75v1.042a4.167,4.167,0,0,0,4.167,4.167H87.5a4.167,4.167,0,0,0,4.167-4.167V83.333A4.167,4.167,0,0,0,87.5,79.167H79.167A4.167,4.167,0,0,0,75,83.333v1.042H63.125A42.917,42.917,0,0,0,92.708,43.75ZM50,68.75ZM41.458,22.917H58.542l7.292,23.125L54.167,62.917V50.833a7.917,7.917,0,0,0,4.167-7.083,8.333,8.333,0,1,0-16.667,0,7.917,7.917,0,0,0,4.167,7.083V62.917L34.167,46.042ZM18.75,89.583H14.583V85.417H18.75Zm62.5-4.167h4.167v4.167H81.25Z" fill="#0abab5"/></g></g></svg>